<?xml version="1.0" encoding="utf-8"?>
<!-- Generator: Adobe Illustrator 19.1.0, SVG Export Plug-In . SVG Version: 6.00 Build 0)  -->
<svg version="1.1" id="Layer_1" xmlns="http://www.w3.org/2000/svg" xmlns:xlink="http://www.w3.org/1999/xlink" x="0px" y="0px"
	 viewBox="200 120 360 600">
<style type="text/css">
	.st0{fill:none;stroke:#000000;stroke-width:2;stroke-miterlimit:10;}
	.st1{fill:none;stroke:#000000;stroke-miterlimit:10;}
</style>
<path class="st0" d="M250.6,152.3c0,0-35.7-42.7-35.7-69.2c0-27.7,10.3-59.8,61.2-59.7c46.6,0,65.2,22.6,71.6,34
	c1.8,3.2,2.7,6.8,2.7,10.5c0,4.9,0,12.5,0,17.9c0,4.2,1.1,8.3,3.2,12l10.4,18.1c0.6,1,0.9,2,1,3.1c0.2,2.2-0.1,5.6-3.6,6.2l-5.4,1.7
	l1.7,15.1c0.2,1.6-0.4,3.2-1.6,4.2l-2.6,2.3l2.4,0.9c1.2,0.5,2,1.6,2,3l0,16c0,0-1.1,3.9-6.6,3.9c-5.5,0-28.1,0-28.1,0h-1.3
	c-2.7,0-4.8,2.1-4.9,4.8l-0.7,22.4c-0.1,3.8,1.1,7.6,3.5,10.6c10.7,13.7,41,61.3,44.2,71.1C374,310.5,381.5,398.8,380,436
	c-1.6,36.5-6.4,113.1-6.4,113.1l31.1,72.6c0.2,0.5,0.3,0.9,0.4,1.4c0.4,2.7,1.4,12.4-0.1,26.8c0,0-8.3,31.1-29.6,24.1l0,0
	c1.1,7.2-0.6,11.3-1.4,16.1c-0.6,3.5-1.3,7-2.5,10.3l-37.4,107.8c0,0-1.9,43.7-15.8,56.8c-3.3,3.1-4.2,7.9-4.8,12.3
	c-3.5,28.7-14.8,121.5-21,151c-0.8,3.9-1.2,7.9-1.3,11.9l-0.3,39.6c-0.1,10.3,7.5,22.4,16.9,26.8c24.9,11.6,65,19,83.8,30.1
	c0,0,19.3,17.5-4.9,22.5l-138.3-2.6c0,0-18.7-7.3-11-37.1s5.6-78.2,1-100.6c-2.5-12.1-18.3-36.3,2.7-155.9c0.5-3.1,1.6-6.1,2.7-9
	l9.5-42.3c0.8-2,1.2-4.1,1.2-6.3l-3.8-164.8c0,0-36.4-31.7-14.3-97.8c22-66.1,0.6-127.6,0.6-127.6s-39.7-107.8-8.8-163.4
	S260.2,166.3,250.6,152.3z"/>
<path class="st0" d="M325.8,292.7c0,0-16.7,83.9-7.6,128.5c0,0,52.1,102,55.4,127.9"/>
<path class="st0" d="M249.5,307.1c0,0,3.7,108,8.2,137.5c0.4,2.9,1.5,5.6,3.2,8l87.9,130.6v26.7c0,6.3,2.2,12.4,6.3,17.2l13.3,10
	c1.7,1.3,2.5,3.4,2.1,5.5c-1.7,8.1-4.8,28.5,5,31.5"/>
<path class="st1" d="M345.7,82.3c-16.6,6.9-14,6.6-14,6.6s0.5,4.2,6.3,4.8s8,0,8,0"/>
<ellipse class="st1" cx="344.5" cy="88.1" rx="1.6" ry="5"/>
<path class="st0" d="M303.1,102.4c0,0-2.9-22.1-10.5-11.4s0,30.4,0,30.4s9,11.6,10.5,4.4c1.6-7.2,0-5.1,0-5.1"/>
<path class="st1" d="M346.1,72c-12-1.3-28.1,6.3-28.1,6.3s0.8,1.8,6.1,0c5.3-1.8,22-0.8,22-0.8L346.1,72z"/>
<path class="st0" d="M353.7,148.4c0,0-9.3,1.7-9.2,0"/>
<path class="st0" d="M350.2,119.8c0,0-2.9,1.8-2.4,3.7c0.5,1.8,0.3,2.9,2.4,2.9s6,0.5,6,0.5"/>
</svg>
