<?xml version="1.0" encoding="utf-8"?>
<!-- Generator: Adobe Illustrator 19.1.0, SVG Export Plug-In . SVG Version: 6.00 Build 0)  -->
<svg version="1.1" id="Layer_1" xmlns="http://www.w3.org/2000/svg" xmlns:xlink="http://www.w3.org/1999/xlink" x="0px" y="0px"
	 viewBox="215 120 360 600">
<style type="text/css">
	.st0{fill:none;stroke:#000000;stroke-width:2;stroke-miterlimit:10;}
	.st1{fill:none;stroke:#000000;stroke-miterlimit:10;}
	.st2{fill:none;stroke:#000000;stroke-width:2;stroke-miterlimit:10;}
</style>
<path class="st0" d="M268.4,155c0,0-33.9-40.5-33.9-65.6c0-26.3,9.8-56.7,58-56.6c44.2,0,61.8,21.4,67.9,32.2c1.7,3,2.6,6.5,2.6,9.9
	c0,4.6,0,11.9,0,17c0,4,1.1,7.9,3,11.4l9.9,17.1c0.5,0.9,0.9,1.9,0.9,3c0.2,2.1-0.1,5.3-3.4,5.9l-5.1,1.6l1.7,14.3
	c0.2,1.5-0.4,3-1.5,4l-2.4,2.1l2.3,0.9c1.2,0.4,1.9,1.6,1.9,2.8v15.1c0,0-1,3.7-6.3,3.7s-26.6,0-26.6,0h-1.2c-2.5,0-4.6,2-4.7,4.5
	l-0.7,21.2c-0.1,3.6,1,7.2,3.3,10.1c10.2,13,38.8,58.1,41.9,67.4c9.4,28,16.5,111.8,15,147c-1.5,34.6-6.1,107.3-6.1,107.3l29.5,68.9
	c0.2,0.4,0.3,0.9,0.4,1.4c0.4,2.6,1.4,11.8-0.1,25.4c0,0-7.8,29.5-28.1,22.9l0,0c1.1,6.8-0.5,10.7-1.3,15.3
	c-0.6,3.3-1.2,6.6-2.3,9.8l-35.5,102c0,0-1.8,41.4-15,53.8c-3.1,2.9-4,7.4-4.5,11.7c-3.3,27.2-14.1,115.1-19.9,143.1
	c-0.8,3.7-1.2,7.5-1.2,11.3l-0.3,37.6c-0.1,9.8,7.1,21.3,16,25.4c23.6,11,61.6,18,79.5,28.5c0,0,18.3,16.6-4.7,21.3l-131.1-2.4
	c0,0-17.8-7-10.5-35.2c7.3-28.2,5.3-74.1,1-95.4c-2.4-11.5-17.3-34.4,2.5-147.8c0.5-2.9,1.5-5.7,2.5-8.5l9-40.1
	c0.8-1.9,1.2-3.9,1.1-5.9L268.4,618c0,0-34.5-30-13.6-92.7s0.5-121,0.5-121s-37.6-102.2-8.4-154.9S277.4,168.4,268.4,155z"/>
<path class="st0" d="M339.7,288.2c0,0-15.9,79.5-7.2,121.8c0,0,49.4,96.7,52.5,121.2"/>
<path class="st0" d="M267.4,301.9c0,0,3.5,102.4,7.8,130.4c0.4,2.7,1.4,5.3,3,7.6l83.3,123.8V589c0,6,2.1,11.7,5.9,16.3l12.6,9.5
	c1.6,1.2,2.4,3.2,2,5.2c-1.6,7.7-4.5,27,4.8,29.9"/>
<path class="st1" d="M358.6,88.8c-15.7,6.5-13.2,6.2-13.2,6.2s0.5,4,6,4.5s7.6,0,7.6,0"/>
<ellipse class="st1" cx="357.4" cy="94.2" rx="1.5" ry="4.7"/>
<path class="st2" d="M303.6,108.3c0,0-2.8-20.9-10-10.8s0,28.8,0,28.8s8.5,11,10,4.2s0-4.8,0-4.8"/>
<path class="st1" d="M358.9,79c-11.4-1.3-26.6,6-26.6,6s0.8,1.8,5.8,0s20.9-0.8,20.9-0.8L358.9,79z"/>
<path class="st0" d="M366.1,151.4c0,0-8.8,1.6-8.7,0"/>
<path class="st2" d="M362.8,124.3c0,0-2.8,1.8-2.3,3.5s0.3,2.8,2.3,2.8s5.7,0.4,5.7,0.4"/>
</svg>
