<?xml version="1.0" encoding="UTF-8" standalone="no"?>
<svg
   xmlns:dc="http://purl.org/dc/elements/1.1/"
   xmlns:cc="http://web.resource.org/cc/"
   xmlns:rdf="http://www.w3.org/1999/02/22-rdf-syntax-ns#"
   xmlns:svg="http://www.w3.org/2000/svg"
   xmlns="http://www.w3.org/2000/svg"
   xmlns:sodipodi="http://sodipodi.sourceforge.net/DTD/sodipodi-0.dtd"
   xmlns:inkscape="http://www.inkscape.org/namespaces/inkscape"
   version="1.0"
   width="500"
   height="1000"
   viewBox="49 29 181 361"
   preserveAspectRatio="xMinYMin meet"
   id="svg2"
   sodipodi:version="0.32"
   inkscape:version="0.45.1"
   sodipodi:docname="Wikicouple.svg"
   sodipodi:docbase="D:\Graphics\Wiki\Limb_Leads"
   inkscape:output_extension="org.inkscape.output.svg.inkscape">
  <defs
     id="defs11" />
  <sodipodi:namedview
     inkscape:window-height="994"
     inkscape:window-width="700"
     inkscape:pageshadow="2"
     inkscape:pageopacity="0.0"
     borderopacity="1.0"
     bordercolor="#666666"
     pagecolor="#ffffff"
     id="base"
     inkscape:zoom="0.7023474"
     inkscape:cx="383.96142"
     inkscape:cy="514.47189"
     inkscape:window-x="-2"
     inkscape:window-y="-4"
     inkscape:current-layer="layer4"
     inkscape:document-units="pt"
     width="500px"
     height="1000px"
     units="px" />
  <metadata
     id="metadata4">
Created by potrace 1.7, written by Peter Selinger 2001-2005
<rdf:RDF>
  <cc:Work
     rdf:about="">
    <dc:format>image/svg+xml</dc:format>
    <dc:type
       rdf:resource="http://purl.org/dc/dcmitype/StillImage" />
  </cc:Work>
</rdf:RDF>
</metadata>
  <g
     inkscape:groupmode="layer"
     id="layer2"
     inkscape:label="Frame">
    <path
       d="M 49.226481,29.285324 L 229.8013,29.285324 
          L 229.8013,389.64963 L 49.226481,389.64963 
	  L 49.226481,29.285324 z
	  M 49.159161,209.62988 L 229.8013,209.62988
          M 139.5138905,29.285324 L 139.5138905,389.64963"
       style="fill:none;fill-opacity:0.35185188;stroke:#000000;stroke-width:1.16999996;stroke-miterlimit:4;stroke-dasharray:none;stroke-opacity:0.53086416"
       id="rect2211" />
    <!--path
       d="M 49.226481,29.285324 L 410.70072,29.285324 L 410.70072,389.64963 L 49.226481,389.64963 L 49.226481,29.285324 z M 229.8013,29.218013 L 229.8013,389.58232 M 49.159161,209.62988 L 410.63342,209.62988"
       style="fill:none;fill-opacity:0.35185188;stroke:#000000;stroke-width:1.16999996;stroke-miterlimit:4;stroke-dasharray:none;stroke-opacity:0.53086416"
       id="rect2211" /-->

    <text x="50" y="41" font-size="90%">Dominant</text>
    <text x="145" y="41" font-size="90%">Non-dominant</text>
  </g>
  <g
     inkscape:groupmode="layer"
     id="layer4"
     inkscape:label="Man"
     style="display:inline">
    <path
       style="fill:#41b5e1;fill-opacity:1;stroke:#000000;stroke-width:0.58499998;stroke-miterlimit:4;stroke-dasharray:none;stroke-opacity:1;display:inline"
       d="M 140.43622,49.615627 C 138.8223,49.665367 137.41512,50.028167 135.20047,50.727127 C 131.11242,52.017337 128.40179,54.223487 127.11284,57.308377 C 126.69921,58.298357 126.19728,61.491787 125.98672,64.416127 C 125.65283,69.053227 125.41917,69.921297 124.24634,71.172877 C 123.02896,72.472007 122.94643,72.886387 123.29572,75.487257 C 123.7911,79.175977 124.89665,81.837797 126.49859,83.194627 C 128.91056,85.237537 130.25745,94.026797 128.72159,97.702627 C 127.70839,100.12755 125.20638,101.50029 114.40372,105.527 C 98.638772,111.40342 95.409442,113.69844 93.855592,120.0935 C 92.851312,124.22672 90.769112,137.19726 89.102472,149.70913 C 87.899812,158.73776 86.514132,162.98571 81.497472,173.153 C 78.861242,178.49585 76.715092,183.352 76.715092,183.94625 C 76.715092,184.5405 76.244472,187.31765 75.676722,190.118 C 75.108962,192.91835 74.506672,197.18518 74.345842,199.595 C 74.151302,202.50986 73.491622,205.57474 72.371472,208.75025 C 71.445392,211.37557 69.968932,215.57997 69.080842,218.09563 C 68.192762,220.61128 67.173632,222.84543 66.828592,223.06813 C 66.483542,223.29082 64.874482,223.98791 63.245472,224.60375 C 61.324882,225.32981 59.425852,226.59812 57.848842,228.23075 C 56.511242,229.61552 54.236922,231.78096 52.788592,233.02775 C 50.550022,234.95481 50.258182,235.40841 50.843472,236.11363 C 51.772312,237.23282 53.505922,237.15611 56.517972,235.865 C 60.021272,234.36331 60.754892,234.4453 60.378972,236.2745 C 59.485522,240.62194 57.880232,250.88878 57.878092,252.28888 C 57.874662,254.52972 61.824762,258.73026 63.464842,258.22663 C 64.087102,258.03554 65.440942,257.66921 66.477592,257.40763 C 68.409652,256.92013 70.250842,255.18586 70.250842,253.85375 C 70.250842,252.93277 71.951362,252.86327 72.839472,253.75138 C 73.853572,254.76548 75.466802,252.76115 76.188592,249.59788 C 76.847842,246.70866 77.922722,242.62362 79.142842,238.29275 C 79.560062,236.81183 80.108202,233.00962 80.371342,229.8395 C 80.784062,224.86726 81.040502,223.81606 82.257972,222.21988 C 83.034172,221.20222 84.424362,218.46416 85.343842,216.13588 C 86.263322,213.80759 87.985572,209.8492 89.175592,207.33163 C 90.365612,204.81407 91.971092,201.16921 92.729472,199.244 C 93.487842,197.3188 94.305542,195.51813 94.557592,195.23675 C 94.809652,194.95537 95.025592,194.41377 95.025592,194.0375 C 95.025592,193.66124 95.594882,192.07662 96.297972,190.51288 C 98.119052,186.46255 99.74968,181.48015 100.34909,178.15475 C 100.6329,176.58023 101.36439,173.71808 101.95784,171.79288 C 102.55129,169.86768 103.48567,166.7127 104.04922,164.7875 C 105.18781,160.89775 106.36375,160.07009 107.31059,162.47675 C 108.58648,165.71977 109.61991,172.87443 109.82609,179.83663 C 110.05443,187.54738 109.59865,192.67741 107.95409,200.60413 C 105.1613,214.06528 104.72952,217.01423 104.63422,223.7555 C 104.52661,231.3661 104.68659,233.83488 106.35997,250.41688 C 107.79305,264.6178 108.3715,269.44271 109.00709,272.76388 C 109.2905,274.2448 109.78581,277.26 110.11859,279.47675 C 110.45137,281.69349 110.84138,283.69609 110.98147,283.92275 C 111.21956,284.308 110.45621,288.83304 107.95409,301.83838 C 106.20625,310.92319 105.53271,320.60985 106.25759,326.26213 C 107.35119,334.78956 107.98924,352.57905 107.41297,358.62725 C 106.96167,363.36373 106.62898,364.5744 105.18997,366.93425 C 102.617,371.15368 96.353162,379.75738 94.791592,381.22288 C 93.115952,382.79544 93.058342,383.59293 94.484472,385.59575 C 96.348422,388.21342 98.670272,389.27425 101.81159,388.9595 C 103.54368,388.78595 104.70828,388.90413 104.94134,389.28125 C 105.44204,390.0914 105.85113,390.05129 108.56834,388.88638 C 110.18042,388.19527 111.60861,386.93525 113.18984,384.82063 C 114.44862,383.13722 115.48597,381.66874 115.48597,381.55925 C 115.48597,381.44976 116.35122,379.50495 117.41647,377.23025 C 119.63218,372.49889 121.57242,366.5543 121.54072,364.57963 C 121.52882,363.83917 121.10972,360.34499 120.60472,356.82838 C 119.58229,349.70867 119.37562,351.12097 123.38347,338.1815 C 126.5675,327.90169 127.94289,320.23087 128.41447,310.18925 C 128.84187,301.08831 129.58442,297.01989 132.36322,288.64663 C 133.83345,284.21641 135.04525,277.76026 136.50209,266.56288 C 138.39333,252.02671 138.94076,249.33462 140.02672,249.33463 C 140.43492,249.33463 140.88118,250.19733 141.06509,251.35288 C 141.24186,252.46357 141.63083,254.33627 141.92797,255.521 C 142.2251,256.70574 142.69087,264.14051 142.96634,272.03263 C 143.47574,286.62711 144.21564,292.06677 146.53484,298.21138 C 147.23346,300.06235 147.29627,301.12954 146.87122,303.76888 C 145.98849,309.2501 148.39285,330.61377 151.50734,344.98213 C 152.43907,349.28055 152.50766,350.64951 152.04847,356.024 C 151.14387,366.6115 150.87802,372.51012 151.22947,373.91038 C 151.62886,375.50169 162.24044,383.78408 167.79959,386.83888 C 170.67205,388.41733 171.95251,388.81325 174.29309,388.81325 C 178.50845,388.81325 181.52891,387.21748 182.76097,384.338 L 183.72622,382.07113 L 182.38072,380.46238 C 181.64028,379.57383 178.45917,377.10861 175.31684,374.99263 C 172.17451,372.87664 168.42977,369.94636 166.99522,368.46988 L 164.39197,365.77888 L 164.30422,361.8155 C 164.2584,359.63238 164.52068,355.90723 164.88922,353.53775 C 165.25775,351.16827 165.93197,346.31334 166.38097,342.75913 C 166.82996,339.20491 167.68721,333.26969 168.29684,329.56738 C 169.65096,321.34382 169.92513,306.23414 168.83797,299.6885 C 167.92852,294.21289 167.80946,280.67342 168.63322,276.80038 C 169.29161,273.70478 170.99992,262.20978 172.04084,253.91225 C 172.37525,251.24659 172.86174,247.97646 173.12309,246.64363 C 173.38444,245.3108 174.00897,240.45586 174.49784,235.865 C 174.98672,231.27414 175.55013,225.99176 175.75559,224.12113 C 175.96105,222.2505 175.95592,219.34046 175.74097,217.65688 C 174.30307,206.39507 173.58573,202.43753 172.59659,200.13613 C 171.65627,197.9483 171.49164,196.51433 171.54359,191.25875 C 171.60662,184.88167 170.78303,175.92073 169.78859,172.11463 C 169.34675,170.42353 169.43022,169.60227 170.18347,167.93188 C 170.69783,166.79123 171.39835,165.86975 171.74834,165.86975 C 172.1087,165.86975 172.92611,168.14683 173.63497,171.12013 C 174.32344,174.00793 175.24227,177.69574 175.66784,179.32475 C 176.0934,180.95377 176.6278,183.61885 176.86709,185.24788 C 177.58564,190.13957 180.48904,198.05072 184.07722,204.90388 C 185.93814,208.45809 187.79854,212.2181 188.20147,213.25475 C 188.60439,214.29139 190.42181,217.67668 192.23797,220.78663 C 198.178,230.95825 198.40972,231.57856 198.40972,236.31838 C 198.40972,240.3078 199.42669,244.62639 201.02759,247.49188 C 201.34395,248.05814 202.7231,250.90879 204.09884,253.8245 C 206.15751,258.18762 206.9016,259.25895 208.29622,259.85 C 209.22819,260.24497 210.29272,261.06437 210.66547,261.67813 C 211.0382,262.29189 211.86763,262.78962 212.50822,262.78963 C 213.1488,262.78963 214.09517,263.16677 214.59959,263.62325 C 215.43199,264.37656 215.65101,264.34341 217.05659,263.1845 C 217.90833,262.48224 219.01871,261.74695 219.52822,261.56113 C 221.08111,260.99477 221.22224,258.69174 220.02547,252.91775 C 219.39674,249.88438 218.88472,246.11274 218.88472,244.53763 C 218.88472,242.05162 219.00264,241.71036 219.82072,241.97825 C 224.41845,243.48389 225.22853,243.58308 226.91384,242.885 C 229.18228,241.94539 228.87841,240.76226 225.97784,239.24338 C 224.70601,238.57739 223.01712,237.25243 222.21922,236.30375 C 219.86045,233.49929 219.04338,232.89874 215.09684,230.98025 C 212.35177,229.64581 211.13693,228.71478 210.59234,227.52875 C 208.85884,223.75346 203.72111,206.52825 202.40234,200.063 C 201.61694,196.2126 200.78842,192.20766 200.55959,191.171 C 199.83587,187.89244 198.0819,183.52101 195.52859,178.62275 C 192.54266,172.89455 191.61024,168.67768 191.12647,158.86438 C 190.92935,154.86588 190.54146,150.61599 190.27822,149.43125 C 189.98291,148.10223 190.05201,143.93604 190.43909,138.53563 C 191.12199,129.00797 190.68647,124.46337 188.74259,120.69313 C 187.46776,118.22053 184.74565,115.65319 181.98584,114.31663 C 180.8011,113.74286 178.98599,112.78884 177.94934,112.196 C 173.05706,109.39824 163.99335,104.474 163.73384,104.474 C 163.57414,104.474 161.73572,103.364 159.65347,102.017 C 155.05402,99.041637 154.01822,97.372807 154.76872,94.119507 C 155.06101,92.852477 155.32061,89.878477 155.33909,87.509007 L 155.36834,83.194627 L 157.40122,81.805257 C 158.79568,80.842257 159.6158,79.729247 160.06297,78.236757 C 161.03791,74.982697 160.89889,71.954527 159.71197,70.880377 C 159.15673,70.377897 158.56549,68.938607 158.39572,67.692127 C 156.45749,53.461497 155.3675,51.830377 146.94434,50.361507 C 143.87086,49.825537 142.05013,49.565887 140.43622,49.615627 z "
       id="path5336" />
  </g>
</svg>
